<svg xmlns="http://www.w3.org/2000/svg" viewBox="0 0 371.85 343.76"><defs><style>.cls-1{fill:#ced0d8;}.cls-2{fill:#fff;}</style></defs><title>AuditAsset 6</title><g id="Layer_2" data-name="Layer 2"><g id="Layer_2-2" data-name="Layer 2"><ellipse class="cls-1" cx="185.93" cy="171.88" rx="185.93" ry="171.88"/><path class="cls-2" d="M248.52,73.66c4.8,18.34,16.26,29.81,34.65,34.62-.42,1.31-.82,2.67-1.28,4a155.23,155.23,0,0,1-35.09,57.44c-13.66,14.24-29.51,25.49-47,34.56a237.62,237.62,0,0,1-32,13.58,1.49,1.49,0,0,1-1.81-.47q-13.26-13.3-26.56-26.55a1.78,1.78,0,0,1-.45-2.18,219.67,219.67,0,0,1,23.2-48.43A163.17,163.17,0,0,1,207,93.8a155.28,155.28,0,0,1,40.57-19.88C247.86,73.81,248.2,73.75,248.52,73.66Zm-43.89,61.48a17,17,0,1,0,16.71-17A17.06,17.06,0,0,0,204.63,135.14Z"/><path class="cls-2" d="M183.93,217a212.15,212.15,0,0,0,42-22.89,59.05,59.05,0,0,1-.06,13.23c-1.81,16.52-9,30.41-20.64,42.11a102.24,102.24,0,0,1-26.06,18.65,110.16,110.16,0,0,1-10.44,4.74c.25-.41.5-.82.76-1.22,5.83-8.84,10.73-18.14,13.71-28.36,2.09-7.19,3-14.49,1.72-22C184.64,219.91,184.27,218.52,183.93,217Z"/><path class="cls-2" d="M83.71,188.13c8-18.26,18.27-34.5,34.93-45.82a66.92,66.92,0,0,1,42.6-11.57c.42,0,.84.11,1.43.19a211.19,211.19,0,0,0-22.82,41.82c-2.57-.44-5-1-7.44-1.23-7.15-.75-14.07.56-20.84,2.73a107,107,0,0,0-26,12.87c-.44.29-.87.58-1.32.86A3,3,0,0,1,83.71,188.13Z"/><path class="cls-2" d="M284.64,103.37c-16.22-2.8-28.93-16.82-31.16-31.2a141.44,141.44,0,0,1,36.4-5.23A142.68,142.68,0,0,1,284.64,103.37Z"/><path class="cls-2" d="M124.73,212.21l7.28-7.29,19.78,19.8L144.51,232Z"/><path class="cls-2" d="M166.66,225.33l-3.37,3.24-35-35,3.32-3.28Z"/><path class="cls-2" d="M92.59,267a11.75,11.75,0,0,1-2-1.65,2.06,2.06,0,0,1,.09-2.56,8.11,8.11,0,0,1,.88-1L121,232.26a10.31,10.31,0,0,1,.75-.73,2.52,2.52,0,0,1,3.44.18,2.48,2.48,0,0,1,0,3.34,7.84,7.84,0,0,1-.64.65q-14.85,14.87-29.72,29.7A16.34,16.34,0,0,1,92.59,267Z"/><path class="cls-2" d="M112.44,199.85a10.71,10.71,0,0,1-1.12,1.91q-10.41,10.47-20.88,20.89a2.47,2.47,0,1,1-3.39-3.58c4-4.08,8.12-8.14,12.19-12.21l8.5-8.49a2.28,2.28,0,0,1,3-.6A9.35,9.35,0,0,1,112.44,199.85Z"/><path class="cls-2" d="M159.6,247a9.8,9.8,0,0,1-1.11,2q-10.41,10.49-20.88,20.89a2.47,2.47,0,1,1-3.47-3.51q10.38-10.41,20.79-20.8a2.35,2.35,0,0,1,3-.59C158.59,245.37,159,246.24,159.6,247Z"/><path class="cls-2" d="M138,245a11.47,11.47,0,0,1-1.24,2.14q-9.83,9.88-19.7,19.71a2.49,2.49,0,0,1-3.72.16c-1-1.06-1-2.49.25-3.72q9.78-9.82,19.6-19.61c.84-.84,1.87-1.34,2.93-.7A9.67,9.67,0,0,1,138,245Z"/><path class="cls-2" d="M91.38,244.54a11.7,11.7,0,0,1-2.08-2,2.12,2.12,0,0,1,.58-2.72q3.75-3.74,7.48-7.49l12.12-12.1c1.32-1.32,2.83-1.48,3.89-.42s1,2.56-.39,3.92q-9.62,9.61-19.25,19.21A15.89,15.89,0,0,1,91.38,244.54Z"/></g></g></svg>