<svg id="Layer_1" data-name="Layer 1" xmlns="http://www.w3.org/2000/svg" viewBox="0 0 612 792"><defs><style>.cls-1,.cls-12,.cls-13,.cls-29,.cls-30{font-size:9.96px;}.cls-1,.cls-13,.cls-30,.cls-33,.cls-5{fill:#6a6a6a;}.cls-1,.cls-13,.cls-3,.cls-30,.cls-4{font-family:Raleway-Medium, Raleway;}.cls-1,.cls-14{letter-spacing:-0.01em;}.cls-2,.cls-6{font-size:11.96px;font-family:Lato-Bold, Lato;font-weight:700;}.cls-2,.cls-3,.cls-4,.cls-6{fill:#333;}.cls-3,.cls-4{font-size:10.96px;}.cls-4{letter-spacing:0em;}.cls-5{font-size:15.94px;}.cls-12,.cls-29,.cls-33,.cls-5{font-family:Lato-Light, Lato;}.cls-6{letter-spacing:-0.07em;}.cls-7{letter-spacing:-0.07em;}.cls-8{letter-spacing:-0.07em;}.cls-9{letter-spacing:-0.07em;}.cls-10{letter-spacing:-0.07em;}.cls-11{letter-spacing:0em;}.cls-12,.cls-29{fill:#2b2b2b;}.cls-15{letter-spacing:-0.01em;}.cls-16,.cls-30{letter-spacing:-0.01em;}.cls-17{letter-spacing:0em;}.cls-18{letter-spacing:0em;}.cls-19{letter-spacing:0em;}.cls-20,.cls-29{letter-spacing:-0.01em;}.cls-21{letter-spacing:-0.01em;}.cls-22{letter-spacing:-0.02em;}.cls-23{letter-spacing:-0.01em;}.cls-24{letter-spacing:-0.01em;}.cls-25{letter-spacing:-0.01em;}.cls-26{letter-spacing:-0.01em;}.cls-27{letter-spacing:0em;}.cls-28{letter-spacing:0em;}.cls-31{letter-spacing:-0.01em;}.cls-32,.cls-35{fill:none;}.cls-33{font-size:16px;}.cls-34{letter-spacing:-0.02em;}.cls-35{stroke:#6a6a6a;stroke-miterlimit:10;stroke-width:0.4px;}</style></defs><title>Software Engineer CV Design</title><text class="cls-1" transform="translate(21.49 285.22)">In development</text><text class="cls-2" transform="translate(21.49 274.8) scale(1.04 1)">Gamified</text><text class="cls-3" transform="translate(72.95 274.8)">|</text><text class="cls-4" transform="translate(78.32 274.8)">YOUTUBE CHANNEL</text><text class="cls-5" transform="translate(15.66 125.4)">TRAININGS</text><text class="cls-6" transform="translate(18.16 145.13)">S<tspan class="cls-7" x="5.55" y="0">c</tspan><tspan x="10.41" y="0">hne</tspan><tspan class="cls-8" x="27.81" y="0">id</tspan><tspan class="cls-9" x="36.16" y="0">er E</tspan><tspan class="cls-10" x="53.15" y="0">l</tspan><tspan x="55.54" y="0">e</tspan><tspan class="cls-7" x="61.07" y="0">c</tspan><tspan x="65.92" y="0">tri</tspan><tspan class="cls-11" x="76.09" y="0">c</tspan></text><text class="cls-12" transform="translate(16.28 174.94)">•</text><text class="cls-12" transform="translate(23.98 174.94)">Home Automation KNX Systems</text><text class="cls-12" transform="translate(16.28 188.01)">•</text><text class="cls-12" transform="translate(23.98 188.01)">Programmable Logic Control (PLC)</text><text class="cls-13" transform="translate(18.33 159.09)"><tspan class="cls-14">Rece</tspan><tspan class="cls-15" x="23.52" y="0">iv</tspan><tspan class="cls-16" x="30.99" y="0">ed tra</tspan><tspan class="cls-15" x="57.83" y="0">i</tspan><tspan class="cls-14" x="60.03" y="0">n</tspan><tspan class="cls-15" x="65.83" y="0">i</tspan><tspan class="cls-16" x="68.03" y="0">n</tspan><tspan class="cls-15" x="73.83" y="0">g</tspan><tspan class="cls-14" x="79.96" y="0"> </tspan><tspan class="cls-15" x="82.4" y="0">m</tspan><tspan class="cls-16" x="91.51" y="0">o</tspan><tspan class="cls-15" x="97.4" y="0">d</tspan><tspan class="cls-14" x="103.58" y="0">ules </tspan><tspan class="cls-15" x="125.35" y="0">i</tspan><tspan class="cls-14" x="127.55" y="0">nclu</tspan><tspan class="cls-15" x="147.46" y="0">di</tspan><tspan class="cls-16" x="155.84" y="0">n</tspan><tspan class="cls-15" x="161.64" y="0">g</tspan><tspan x="167.77" y="0">:</tspan></text><text class="cls-12" transform="translate(16.28 201.01)">•</text><text class="cls-12" transform="translate(23.98 201.01)">Low Voltage Switch Gears</text><text class="cls-12" transform="translate(16.28 213.35)">•</text><text class="cls-12" transform="translate(24.59 214.34)">Variable Speed Drives</text><text class="cls-2" transform="translate(211.14 142.45)">UDEMY</text><text class="cls-3" transform="translate(261.38 141.45)">|</text><text class="cls-3" transform="translate(266.76 141.45)">THE COMPLETE 2020 WEB DEVELOPMENT BOOTCAMP</text><text class="cls-13" transform="translate(212.14 155.86)"><tspan class="cls-17">Dec 20</tspan><tspan class="cls-18" x="32.39" y="0">1</tspan><tspan class="cls-19" x="36.84" y="0">9</tspan><tspan x="42.69" y="0"> </tspan></text><text class="cls-13" transform="translate(257.25 155.86)">–</text><text class="cls-13" transform="translate(265.55 155.86)">Feb 2020.</text><text class="cls-12" transform="translate(227.98 172.46)">•</text><text class="cls-12" transform="translate(239.73 173.86)">Build fully-ﬂedged websites and web apps.</text><text class="cls-12" transform="translate(240.52 185.41)">Covered all aspects of Front-End and Back-End.</text><text class="cls-12" transform="translate(227.98 185.41)">•</text><text class="cls-12" transform="translate(240.34 198.82)"><tspan class="cls-20">L</tspan><tspan class="cls-21" x="4.95" y="0">e</tspan><tspan class="cls-20" x="9.9" y="0">a</tspan><tspan class="cls-21" x="14.59" y="0">rn </tspan><tspan class="cls-20" x="25.44" y="0">t</tspan><tspan class="cls-21" x="28.85" y="0">he </tspan><tspan class="cls-22" x="40.83" y="0">lat</tspan><tspan class="cls-21" x="51.15" y="0">es</tspan><tspan class="cls-20" x="60.24" y="0">t</tspan><tspan class="cls-21" x="63.64" y="0" xml:space="preserve"> fr</tspan><tspan class="cls-20" x="72.31" y="0">am</tspan><tspan class="cls-21" x="84.78" y="0">eworks</tspan><tspan class="cls-22" x="114.91" y="0" xml:space="preserve"> a</tspan><tspan class="cls-23" x="121.38" y="0">nd techno</tspan><tspan class="cls-20" x="162.22" y="0">l</tspan><tspan class="cls-21" x="164.44" y="0">o</tspan><tspan class="cls-20" x="169.69" y="0">gi</tspan><tspan class="cls-21" x="176.78" y="0">e</tspan><tspan class="cls-20" x="181.73" y="0">s, i</tspan><tspan class="cls-23" x="191.67" y="0">nc</tspan><tspan class="cls-20" x="201.32" y="0">l</tspan><tspan class="cls-21" x="203.54" y="0">ud</tspan><tspan class="cls-20" x="214.08" y="0">i</tspan><tspan class="cls-21" x="216.3" y="0">n</tspan><tspan class="cls-20" x="221.55" y="0">g</tspan><tspan class="cls-21" x="226.43" y="0" xml:space="preserve"> J</tspan><tspan class="cls-20" x="232.6" y="0">avas</tspan><tspan class="cls-24" x="250.83" y="0">cr</tspan><tspan class="cls-20" x="259.04" y="0">i</tspan><tspan class="cls-21" x="261.25" y="0">p</tspan><tspan class="cls-20" x="266.44" y="0">t</tspan><tspan x="269.84" y="0"> </tspan></text><text class="cls-12" transform="translate(240.34 210.77)"><tspan class="cls-21">E</tspan><tspan class="cls-25" x="5.75" y="0">S</tspan><tspan class="cls-21" x="10.8" y="0">6, Boo</tspan><tspan class="cls-20" x="36.8" y="0">tst</tspan><tspan class="cls-21" x="47.74" y="0">r</tspan><tspan class="cls-25" x="51.55" y="0">a</tspan><tspan class="cls-24" x="56.25" y="0">p 4</tspan><tspan class="cls-22" x="68.87" y="0">,</tspan><tspan class="cls-21" x="70.68" y="0"> </tspan><tspan class="cls-25" x="72.47" y="0">M</tspan><tspan class="cls-21" x="81.37" y="0">on</tspan><tspan class="cls-22" x="91.87" y="0">g</tspan><tspan class="cls-23" x="96.75" y="0">oD</tspan><tspan x="109.43" y="0">B</tspan></text><text class="cls-12" transform="translate(227.98 198.36)">•</text><text class="cls-12" transform="translate(227.98 225.36)">•</text><text class="cls-2" transform="translate(213.82 245.61)">UDEMY</text><text class="cls-3" transform="translate(267.17 245.61)">|</text><text class="cls-3" transform="translate(272.55 245.61)">THE MERN FULLSTACK GUIDE</text><text class="cls-13" transform="translate(213.82 257.57)">Feb 2020 - April 2020</text><text class="cls-12" transform="translate(227.97 271.51)">•</text><text class="cls-12" transform="translate(238.73 271.51)"><tspan class="cls-15">L</tspan><tspan class="cls-14" x="5.01" y="0">e</tspan><tspan class="cls-15" x="10.02" y="0">a</tspan><tspan class="cls-16" x="14.77" y="0">rn</tspan><tspan class="cls-26" x="23.96" y="0"> </tspan><tspan class="cls-16" x="25.79" y="0">ho</tspan><tspan class="cls-15" x="36.41" y="0">w t</tspan><tspan class="cls-16" x="48.96" y="0">o</tspan><tspan class="cls-15" x="54.27" y="0"> </tspan><tspan class="cls-16" x="56.1" y="0">connec</tspan><tspan class="cls-15" x="85.95" y="0">t R</tspan><tspan class="cls-14" x="97.44" y="0">e</tspan><tspan class="cls-15" x="102.45" y="0">a</tspan><tspan class="cls-16" x="107.21" y="0">c</tspan><tspan class="cls-15" x="111.66" y="0">tJS wit</tspan><tspan class="cls-16" x="139.5" y="0">h</tspan><tspan class="cls-15" x="144.81" y="0" xml:space="preserve"> N</tspan><tspan class="cls-16" x="154.08" y="0">ode</tspan><tspan class="cls-15" x="169.76" y="0">JS, </tspan><tspan class="cls-14" x="183.02" y="0">E</tspan><tspan class="cls-15" x="188.83" y="0">x</tspan><tspan class="cls-16" x="193.33" y="0">pre</tspan><tspan class="cls-15" x="207.47" y="0">ss &amp; M</tspan><tspan class="cls-14" x="235.29" y="0">on</tspan><tspan class="cls-15" x="245.91" y="0">g</tspan><tspan class="cls-16" x="250.84" y="0">o</tspan><tspan class="cls-26" x="256.15" y="0">D</tspan><tspan class="cls-16" x="263.63" y="0">B</tspan><tspan x="269.94" y="0"> </tspan></text><text class="cls-12" transform="translate(227.84 289.38)">•</text><text class="cls-2" transform="translate(210.08 310.81)">UDEMY</text><text class="cls-3" transform="translate(257.66 310.81)">|</text><text class="cls-3" transform="translate(263.03 310.81)">COMPLETE C# UNITY DEVELOPER 2D</text><text class="cls-13" transform="translate(220.14 322.77)">Jul 2018 - Sep 2018</text><text class="cls-12" transform="translate(229.22 336.71)">•</text><text class="cls-12" transform="translate(239.98 336.71)">Learned the basics of C# Programming Language.</text><text class="cls-12" transform="translate(229.22 349.67)">•</text><text class="cls-12" transform="translate(239.98 349.67)">Implemented Object Oriented Programming concepts.</text><text class="cls-12" transform="translate(229.22 362.62)">•</text><text class="cls-12" transform="translate(239.98 362.62)"><tspan class="cls-21">Developed</tspan><tspan class="cls-20" x="44.96" y="0"> </tspan><tspan class="cls-21" x="46.74" y="0">h</tspan><tspan class="cls-20" x="51.99" y="0">ig</tspan><tspan class="cls-21" x="59.08" y="0">h</tspan><tspan class="cls-20" x="64.33" y="0">ly</tspan><tspan class="cls-21" x="71.25" y="0"> </tspan><tspan class="cls-20" x="73.03" y="0">t</tspan><tspan class="cls-21" x="76.44" y="0">r</tspan><tspan class="cls-20" x="80.25" y="0">a</tspan><tspan class="cls-21" x="84.95" y="0">n</tspan><tspan class="cls-22" x="90.2" y="0">s</tspan><tspan class="cls-21" x="94.33" y="0">fer</tspan><tspan class="cls-20" x="106.17" y="0">a</tspan><tspan class="cls-21" x="110.87" y="0">b</tspan><tspan class="cls-20" x="116.17" y="0">l</tspan><tspan class="cls-21" x="118.38" y="0">e cod</tspan><tspan class="cls-20" x="140.06" y="0">i</tspan><tspan class="cls-21" x="142.28" y="0">n</tspan><tspan class="cls-22" x="147.53" y="0">g </tspan><tspan class="cls-21" x="154.18" y="0">proble</tspan><tspan class="cls-20" x="180.91" y="0">m</tspan><tspan class="cls-21" x="188.69" y="0"> </tspan><tspan class="cls-20" x="190.47" y="0">s</tspan><tspan class="cls-21" x="194.6" y="0">o</tspan><tspan class="cls-22" x="199.85" y="0">l</tspan><tspan class="cls-23" x="202.07" y="0">v</tspan><tspan class="cls-20" x="206.78" y="0">i</tspan><tspan class="cls-21" x="209" y="0">ng</tspan><tspan class="cls-22" x="219.14" y="0"> </tspan><tspan class="cls-21" x="220.91" y="0">sk</tspan><tspan class="cls-20" x="229.82" y="0">ills</tspan><tspan x="240.6" y="0">.</tspan></text><text class="cls-12" transform="translate(229.22 374.49)">•</text><text class="cls-12" transform="translate(239.98 374.49)"><tspan class="cls-20">C</tspan><tspan class="cls-21" x="6.86" y="0">re</tspan><tspan class="cls-20" x="15.63" y="0">a</tspan><tspan class="cls-21" x="20.32" y="0">te p</tspan><tspan class="cls-20" x="35.66" y="0">la</tspan><tspan class="cls-21" x="42.57" y="0">y</tspan><tspan class="cls-20" x="47.29" y="0">a</tspan><tspan class="cls-23" x="51.98" y="0">b</tspan><tspan class="cls-22" x="57.28" y="0">l</tspan><tspan class="cls-21" x="59.5" y="0">e </tspan><tspan class="cls-20" x="66.23" y="0">gam</tspan><tspan class="cls-21" x="83.58" y="0">e</tspan><tspan class="cls-20" x="88.54" y="0"> </tspan><tspan class="cls-21" x="90.31" y="0">pro</tspan><tspan class="cls-25" x="104.56" y="0">j</tspan><tspan class="cls-21" x="106.76" y="0">ec</tspan><tspan class="cls-22" x="116.11" y="0">ts</tspan><tspan class="cls-21" x="123.64" y="0" xml:space="preserve"> us</tspan><tspan class="cls-20" x="134.82" y="0">i</tspan><tspan class="cls-21" x="137.04" y="0">n</tspan><tspan class="cls-20" x="142.29" y="0">g</tspan><tspan class="cls-21" x="147.16" y="0"> </tspan><tspan class="cls-22" x="148.95" y="0">U</tspan><tspan class="cls-23" x="156.1" y="0">n</tspan><tspan class="cls-22" x="161.36" y="0">it</tspan><tspan class="cls-21" x="166.97" y="0">y</tspan><tspan class="cls-20" x="171.69" y="0" xml:space="preserve"> gam</tspan><tspan class="cls-21" x="190.81" y="0">e en</tspan><tspan class="cls-22" x="207.75" y="0">gi</tspan><tspan class="cls-21" x="214.84" y="0">ne</tspan><tspan x="225.04" y="0">.</tspan></text><text class="cls-2" transform="translate(212.14 390.9)">FULL EMBEDDED SYSTEMS DIPLOMA</text><text class="cls-3" transform="translate(421.72 390.13)">|</text><text class="cls-3" transform="translate(427.09 390.13)">ENG. MOHAMED TAREK</text><text class="cls-1" transform="translate(222.88 610.15)">Aug 2<tspan class="cls-15" x="26.4" y="0">0</tspan><tspan class="cls-16" x="32.43" y="0">17 - May 2</tspan><tspan class="cls-15" x="78.21" y="0">01</tspan><tspan class="cls-27" x="88.63" y="0">8</tspan></text><text class="cls-13" transform="translate(222.49 676.15)"><tspan class="cls-16">Oct 2016 - May 2</tspan><tspan class="cls-15" x="76.45" y="0">0</tspan><tspan class="cls-16" x="82.48" y="0">1</tspan><tspan x="86.88" y="0">7</tspan></text><text class="cls-1" transform="translate(234.13 414.86)">Co<tspan class="cls-26" x="12.6" y="0">v</tspan><tspan class="cls-16" x="17.87" y="0">ere</tspan><tspan class="cls-15" x="33.03" y="0">d</tspan><tspan class="cls-28" x="39.2" y="0">:</tspan></text><text class="cls-12" transform="translate(231.29 428.81)">•</text><text class="cls-12" transform="translate(242.04 428.81)">C Programming, Data Structures (Linked-List, Stack and Queue).</text><text class="cls-12" transform="translate(231.29 441.76)">•</text><text class="cls-12" transform="translate(242.04 441.76)">AVR Micro-controllers Interfacing.</text><text class="cls-12" transform="translate(231.29 454.71)">•</text><text class="cls-29" transform="translate(242.04 454.71)">C<tspan class="cls-21" x="6.86" y="0" xml:space="preserve"> For</tspan><tspan class="cls-22" x="23.27" y="0"> </tspan><tspan class="cls-23" x="25.04" y="0">E</tspan><tspan x="30.79" y="0">m</tspan><tspan class="cls-21" x="38.56" y="0">bedded </tspan><tspan x="71.45" y="0">A</tspan><tspan class="cls-21" x="77.72" y="0">pp</tspan><tspan class="cls-22" x="88.1" y="0">li</tspan><tspan class="cls-21" x="92.54" y="0">c</tspan><tspan x="96.93" y="0">ati</tspan><tspan class="cls-23" x="107.24" y="0">on</tspan><tspan class="cls-22" x="117.75" y="0">s</tspan><tspan class="cls-21" x="121.88" y="0" xml:space="preserve"> (E</tspan><tspan x="132.26" y="0">m</tspan><tspan class="cls-23" x="140.04" y="0">bedded</tspan><tspan x="171.14" y="0" xml:space="preserve"> C</tspan><tspan class="cls-23" x="179.77" y="0">)</tspan><tspan class="cls-27" x="182.62" y="0">.</tspan></text><text class="cls-12" transform="translate(231.29 466.59)">•</text><text class="cls-12" transform="translate(242.04 466.59)"><tspan class="cls-21">Re</tspan><tspan class="cls-20" x="11.1" y="0">al</tspan><tspan class="cls-21" x="18.01" y="0"> </tspan><tspan class="cls-20" x="19.79" y="0">Tim</tspan><tspan class="cls-21" x="35.46" y="0">e </tspan><tspan class="cls-20" x="42.2" y="0">OS </tspan><tspan class="cls-23" x="56.82" y="0">(R</tspan><tspan class="cls-20" x="65.82" y="0">TOS</tspan><tspan class="cls-21" x="84.34" y="0">)</tspan><tspan x="87.19" y="0">.</tspan></text><text class="cls-12" transform="translate(231.29 487.09)">•</text><text class="cls-12" transform="translate(242.04 487.09)"><tspan class="cls-20">S</tspan><tspan class="cls-21" x="5.06" y="0">of</tspan><tspan class="cls-20" x="13.37" y="0">t</tspan><tspan class="cls-21" x="16.78" y="0">w</tspan><tspan class="cls-20" x="23.98" y="0">a</tspan><tspan class="cls-21" x="28.68" y="0">re En</tspan><tspan class="cls-22" x="50.23" y="0">gi</tspan><tspan class="cls-21" x="57.32" y="0">neer</tspan><tspan class="cls-20" x="76.29" y="0">i</tspan><tspan class="cls-21" x="78.5" y="0">n</tspan><tspan class="cls-20" x="83.75" y="0">g</tspan><tspan x="88.63" y="0">.</tspan></text><text class="cls-12" transform="translate(231.29 477.1)">•</text><text class="cls-12" transform="translate(242.04 477.1)"><tspan class="cls-21">E</tspan><tspan class="cls-25" x="5.75" y="0">m</tspan><tspan class="cls-21" x="13.52" y="0">bedded </tspan><tspan class="cls-22" x="46.41" y="0">T</tspan><tspan class="cls-21" x="52.08" y="0">oo</tspan><tspan class="cls-22" x="62.58" y="0">l</tspan><tspan x="64.8" y="0">s</tspan></text><text class="cls-5" transform="translate(217.14 521.17)">EXTRA-CURRICULAR ACTIVITIES</text><text class="cls-12" transform="translate(222.49 623.18)">Set the vision and scope of (ISLC) as well as lay out the ﬂow of sessions</text><text class="cls-12" transform="translate(214.88 624.52)">•</text><text class="cls-12" transform="translate(222.49 636.11)">Prepared and trained as well as managed 24 moderators (instructors) to prepare <tspan x="0" y="11.96">9 sessions</tspan></text><text class="cls-12" transform="translate(267.52 648.07)">and a conference for over 550 participants.</text><text class="cls-12" transform="translate(214.88 637.46)">•</text><text class="cls-12" transform="translate(222.1 688.61)">Prepared, led and trained 40 members to carry out several proje</text><text class="cls-12" transform="translate(492.49 688.61)">cts and campaigns</text><text class="cls-12" transform="translate(222.1 700.57)">to serve the community.</text><text class="cls-12" transform="translate(214.49 689.96)">•</text><text class="cls-30" transform="translate(222.41 729.66)">Oct 2<tspan class="cls-15" x="23.93" y="0">0</tspan><tspan x="29.96" y="0">15 - May 20</tspan><tspan class="cls-31" x="81.9" y="0">1</tspan><tspan class="cls-28" x="86.29" y="0">6</tspan></text><text class="cls-12" transform="translate(222.02 742.12)">Delivered 9 four-hour sessions for 80 student from different un</text><text class="cls-12" transform="translate(471.16 741.08)">iversity to enhance</text><text class="cls-12" transform="translate(222.02 754.08)">Creativity, Problem-Solving and Decision-making process.</text><text class="cls-12" transform="translate(214.41 743.47)">•</text><text class="cls-5" transform="translate(211.5 121.96)">COURSES</text><text class="cls-12" transform="translate(238.73 289.37)"><tspan class="cls-15">A</tspan><tspan class="cls-16" x="6.33" y="0">dd F</tspan><tspan class="cls-15" x="24.51" y="0">il</tspan><tspan class="cls-16" x="29.07" y="0">e </tspan><tspan class="cls-15" x="35.92" y="0">U</tspan><tspan class="cls-16" x="43.14" y="0">p</tspan><tspan class="cls-15" x="48.39" y="0">l</tspan><tspan class="cls-14" x="50.66" y="0">o</tspan><tspan class="cls-15" x="55.97" y="0">a</tspan><tspan class="cls-16" x="60.73" y="0">d</tspan><tspan class="cls-15" x="66.09" y="0" xml:space="preserve"> t</tspan><tspan class="cls-14" x="71.38" y="0">o</tspan><tspan class="cls-15" x="76.7" y="0"> </tspan><tspan class="cls-16" x="78.53" y="0">Re</tspan><tspan class="cls-15" x="89.75" y="0">a</tspan><tspan class="cls-16" x="94.5" y="0">c</tspan><tspan class="cls-15" x="98.96" y="0">tJS</tspan><tspan class="cls-16" x="111.97" y="0" xml:space="preserve"> + </tspan><tspan class="cls-15" x="121.35" y="0">N</tspan><tspan class="cls-14" x="128.79" y="0">ode</tspan><tspan class="cls-15" x="144.47" y="0">/ </tspan><tspan class="cls-16" x="149.77" y="0">E</tspan><tspan class="cls-15" x="155.58" y="0">x</tspan><tspan class="cls-16" x="160.08" y="0">pres</tspan><tspan class="cls-15" x="178.42" y="0">s</tspan><tspan class="cls-16" x="182.61" y="0"> </tspan><tspan class="cls-15" x="184.45" y="0">A</tspan><tspan class="cls-16" x="190.78" y="0">pp</tspan><tspan class="cls-15" x="201.28" y="0">li</tspan><tspan class="cls-16" x="205.84" y="0">c</tspan><tspan class="cls-15" x="210.29" y="0">ati</tspan><tspan class="cls-14" x="220.79" y="0">on</tspan><tspan x="231.41" y="0">s</tspan></text><text class="cls-12" transform="translate(239.63 223.81)"><tspan class="cls-21">Front</tspan><tspan class="cls-20" x="23.29" y="0">-</tspan><tspan class="cls-21" x="26.45" y="0">end de</tspan><tspan class="cls-20" x="53.99" y="0">v</tspan><tspan class="cls-21" x="58.69" y="0">e</tspan><tspan class="cls-20" x="63.64" y="0">l</tspan><tspan class="cls-21" x="65.86" y="0">op</tspan><tspan class="cls-20" x="76.3" y="0">m</tspan><tspan class="cls-21" x="84.07" y="0">en</tspan><tspan class="cls-20" x="94.27" y="0">t</tspan><tspan class="cls-21" x="97.68" y="0" xml:space="preserve"> w</tspan><tspan class="cls-20" x="106.66" y="0">it</tspan><tspan class="cls-21" x="112.28" y="0">h </tspan><tspan class="cls-20" x="119.31" y="0">R</tspan><tspan class="cls-21" x="125.45" y="0">e</tspan><tspan class="cls-20" x="130.4" y="0">a</tspan><tspan class="cls-21" x="135.1" y="0">c</tspan><tspan class="cls-22" x="139.49" y="0">t</tspan><tspan x="142.89" y="0">.</tspan></text><text class="cls-2" transform="translate(214.64 579.91)">INTERNATIONAL STUDENTS LEADERSHIP CONFERENCE (ISLC) </text><text class="cls-3" transform="translate(214.18 595.25)">MODERATORS’ COORDINATOR (HEAD OF ACADEMIC COMMITTEE) </text><text class="cls-1" transform="translate(222.88 557.28)">April 2020 - currently</text><text class="cls-2" transform="translate(214.64 540.04)">MASHROU’ EL SA’ADA</text><text class="cls-3" transform="translate(341.68 540.04)">| FUNDRAISING HEAD</text><text class="cls-3" transform="translate(214.18 661.74)">ISLC CARES COMMITTE | HEAD</text><text class="cls-3" transform="translate(214.65 713.59)">CREATIVITY AND INNOVATION MODERATOR</text><rect class="cls-32" x="17.84" y="80.05" width="612" height="792"/><text class="cls-33" transform="translate(17.79 257.27)">PERSONAL P<tspan class="cls-34" x="93.34" y="0">R</tspan><tspan x="103.09" y="0">OJECTS</tspan></text><line class="cls-35" x1="17.84" y1="96.55" x2="629.84" y2="96.55"/><text class="cls-12" transform="translate(18.33 274.8)"> </text><text class="cls-33" transform="translate(19.86 380.05)">INTERESTS</text><text class="cls-12" transform="translate(17.72 402.84)">•</text><text class="cls-12" transform="translate(24.59 402.84)">Game Development</text><text class="cls-12" transform="translate(17.72 414.27)">•</text><text class="cls-12" transform="translate(24.99 414.27)">Video Creation</text><text class="cls-12" transform="translate(17.72 425.6)">•</text><text class="cls-12" transform="translate(24.99 425.6)">Graphic Design</text><text class="cls-12" transform="translate(16.66 303.82)">•</text><text class="cls-12" transform="translate(23.52 303.82)">Creating a youtube channel of <tspan x="0" y="11.96">explainer videos where I explain</tspan><tspan x="0" y="23.91">Some of the basic programming concepts.</tspan></text><text class="cls-12" transform="translate(16.66 342.48)">•</text><text class="cls-12" transform="translate(23.52 342.48)">Link:// http://tiny.cc/alisadek</text></svg>