<svg id="Layer_1" data-name="Layer 1" xmlns="http://www.w3.org/2000/svg" xmlns:xlink="http://www.w3.org/1999/xlink" viewBox="0 0 612 792"><defs><style>.cls-1,.cls-6{fill:none;}.cls-2,.cls-3{font-size:39.85px;fill:#666766;}.cls-2{font-family:Lato-Hairline, Lato;}.cls-12,.cls-14,.cls-3,.cls-7{font-family:Lato-Light, Lato;}.cls-18,.cls-4{font-size:10.96px;}.cls-10,.cls-26,.cls-4,.cls-7{fill:#6a6a6a;}.cls-10,.cls-18,.cls-26,.cls-4,.cls-9{font-family:Raleway-Medium, Raleway;}.cls-5{clip-path:url(#clip-path);}.cls-6{stroke:#6a6a6a;stroke-miterlimit:10;stroke-width:0.4px;}.cls-7{font-size:15.94px;}.cls-8{font-size:11.96px;}.cls-11,.cls-18,.cls-8,.cls-9{fill:#333;}.cls-11,.cls-8{font-family:Lato-Bold, Lato;font-weight:700;}.cls-9{font-size:10.56px;}.cls-10,.cls-12,.cls-13{font-size:9.96px;}.cls-11{font-size:11.51px;}.cls-12,.cls-13,.cls-14{fill:#2b2b2b;}.cls-13{font-family:Lato-Regular, Lato;}.cls-14{font-size:9.96px;}.cls-15{letter-spacing:-0.07em;}.cls-16{letter-spacing:-0.07em;}.cls-17{letter-spacing:-0.07em;}.cls-19{letter-spacing:-0.01em;}.cls-20{letter-spacing:-0.01em;}.cls-21{letter-spacing:-0.01em;}.cls-22{letter-spacing:-0.01em;}.cls-23{letter-spacing:0em;}.cls-24{letter-spacing:0em;}.cls-25{letter-spacing:0em;}.cls-26{font-size:9.19px;}.cls-27{letter-spacing:-0.07em;}.cls-28{letter-spacing:0em;}</style><clipPath id="clip-path"><rect class="cls-1" y="1" width="612" height="792"/></clipPath></defs><title>Software Engineer CV Design</title><text class="cls-2" transform="translate(230.52 50.95)">Ali</text><text class="cls-3" transform="translate(277.46 50.95)">Sadek</text><text class="cls-4" transform="translate(329.75 72.92)">|</text><text class="cls-4" transform="translate(335.31 72.92)">Rehab City, Cairo</text><text class="cls-4" transform="translate(329.75 87.21)">|</text><text class="cls-4" transform="translate(335.13 87.21)">+201111921824</text><text class="cls-4" transform="translate(213.68 72.92)">alysadekk@gmail.com</text><g class="cls-5"><line class="cls-6" y1="96.63" x2="612" y2="96.63"/></g><text class="cls-7" transform="translate(35.43 122.53)">EDUC</text><text class="cls-7" transform="translate(79.86 122.53)">A</text><text class="cls-7" transform="translate(89.25 122.53)">TION</text><text class="cls-8" transform="translate(35.43 138.8)">Ainshams University</text><text class="cls-9" transform="translate(35.43 152.51) scale(1 1.04)">B</text><text class="cls-9" transform="translate(42.52 152.51) scale(1 1.04)">S</text><text class="cls-9" transform="translate(51.6 152.51) scale(1 1.04)">I</text><text class="cls-9" transform="translate(54.35 152.51) scale(1 1.04)">N</text><text class="cls-9" transform="translate(65.13 152.51) scale(1 1.04)">ENERGY AND RENEWABLE </text><text class="cls-9" transform="translate(35.43 165.66) scale(1 1.04)">ENERGY ENGINEERING</text><text class="cls-10" transform="translate(35.43 179.87)">June 2018</text><text class="cls-10" transform="translate(35.43 210.2)">Graduation Project </text><text class="cls-10" transform="translate(35.43 222.15)">Grade: 4.0</text><text class="cls-11" transform="translate(35.43 239.63) scale(1 1.04)">Nermine Ismail American School</text><text class="cls-10" transform="translate(35.43 251.59)">G</text><text class="cls-10" transform="translate(42.55 251.59)">r</text><text class="cls-10" transform="translate(46.09 251.59)">ad</text><text class="cls-10" transform="translate(57.88 251.59)">.</text><text class="cls-10" transform="translate(63.2 251.59)">June 2013</text><text class="cls-7" transform="translate(35.43 290.78)">LINKS</text><text class="cls-12" transform="translate(35.43 306.28)">Github:</text><text class="cls-12" transform="translate(67.37 306.28)">/</text><text class="cls-12" transform="translate(70.48 306.28)">/</text><text class="cls-13" transform="translate(75.94 306.28)">github.com/alisadek</text><text class="cls-12" transform="translate(35.43 317.24)">Lin</text><text class="cls-12" transform="translate(48.27 317.24)">k</text><text class="cls-12" transform="translate(52.91 317.24)">edIn:</text><text class="cls-12" transform="translate(74.17 317.24)">/</text><text class="cls-12" transform="translate(77.26 317.24)">/</text><text class="cls-13" transform="translate(82.71 317.24)">linkedin.com/in/alisadekk</text><text class="cls-12" transform="translate(35.73 328.38)">Youtube:</text><text class="cls-12" transform="translate(74.17 328.38)">/</text><text class="cls-12" transform="translate(77.26 328.38)">/</text><text class="cls-13" transform="translate(82.71 328.38)">http://tiny.cc/alisadek</text><text class="cls-7" transform="translate(35.43 366.51)">SKILLS</text><text class="cls-8" transform="translate(35.43 383.41)">Technical Skils</text><text class="cls-8" transform="translate(36.77 523.99)">Soft Skils</text><text class="cls-12" transform="translate(35.93 398.09)">•</text><text class="cls-12" transform="translate(35.93 409.99)">•</text><text class="cls-12" transform="translate(42.79 409.99)">React.js</text><text class="cls-12" transform="translate(121.6 398.09)">•</text><text class="cls-12" transform="translate(128.6 398.09)">J</text><text class="cls-12" transform="translate(133.13 398.09)">a</text><text class="cls-12" transform="translate(137.86 398.09)">vascript</text><text class="cls-12" transform="translate(69.77 436.2)">C</text><text class="cls-12" transform="translate(35.93 436.2)">•</text><text class="cls-12" transform="translate(42.79 436.2)">C#</text><text class="cls-12" transform="translate(81.8 409.99)">•</text><text class="cls-12" transform="translate(42.79 398.09)">CSS</text><text class="cls-12" transform="translate(35.94 422.53)">•</text><text class="cls-12" transform="translate(121.61 409.99)">•</text><text class="cls-12" transform="translate(42.8 422.53)">Express</text><text class="cls-12" transform="translate(81.81 436.2)">•</text><text class="cls-14" transform="translate(89.06 436.19)">C For Embedded Applications</text><text class="cls-10" transform="translate(36.77 488.82)">F</text><text class="cls-10" transform="translate(42.04 488.82)">amiliar:</text><text class="cls-12" transform="translate(43.23 504.11)">Python</text><text class="cls-12" transform="translate(118.9 504.11)">•</text><text class="cls-12" transform="translate(126.6 504.11)">Linux</text><text class="cls-12" transform="translate(154.39 504.11)">•</text><text class="cls-12" transform="translate(162.1 504.11)">DevOps</text><text class="cls-12" transform="translate(73.76 504.11)">•</text><text class="cls-12" transform="translate(81.46 504.11)">MySQL</text><text class="cls-7" transform="translate(33.26 592.68)">EXPERIENCE</text><text class="cls-8" transform="translate(35.23 610.63)"><tspan class="cls-15">T</tspan><tspan class="cls-16" x="6.26" y="0">utora</tspan><tspan class="cls-17" x="31.32" y="0">m</tspan><tspan x="40.54" y="0">a</tspan></text><text class="cls-18" transform="translate(86.78 610.63)">|</text><text class="cls-18" transform="translate(92.16 610.63)">Math Teacher</text><text class="cls-10" transform="translate(35.23 622.59)"><tspan class="cls-19">20</tspan><tspan class="cls-20" x="11.29" y="0">1</tspan><tspan x="15.68" y="0">7</tspan></text><text class="cls-10" transform="translate(56.13 622.59)">-</text><text class="cls-10" transform="translate(62.84 622.59)">Prese</text><text class="cls-10" transform="translate(89.36 622.59)">n</text><text class="cls-10" transform="translate(95.23 622.59)">t</text><text class="cls-7" transform="translate(230.52 122.53)">TECHNICAL PROJECTS</text><text class="cls-8" transform="translate(227.52 139.42) scale(1.04 1)">BLOG WEBAPP</text><text class="cls-18" transform="translate(321.12 138.8)">|</text><text class="cls-18" transform="translate(326.5 138.8)">WEBSITE, GITHUB</text><text class="cls-10" transform="translate(230.52 151.39)"><tspan class="cls-21">Apr</tspan><tspan class="cls-22" x="16.33" y="0">i</tspan><tspan class="cls-19" x="18.53" y="0">l 2</tspan><tspan class="cls-20" x="28.99" y="0">0</tspan><tspan class="cls-19" x="35.02" y="0">2</tspan><tspan x="40.27" y="0">0</tspan></text><text class="cls-8" transform="translate(227.52 221.73) scale(1.04 1)">NOTES WEBAPP</text><text class="cls-18" transform="translate(325.99 221.11)">|</text><text class="cls-18" transform="translate(331.36 221.11)"><tspan class="cls-23">WEB</tspan><tspan x="25.51" y="0">SI</tspan><tspan class="cls-24" x="35.04" y="0">TE, G</tspan><tspan class="cls-25" x="61.36" y="0">I</tspan><tspan class="cls-24" x="64.21" y="0">T</tspan><tspan x="70.95" y="0">H</tspan><tspan class="cls-24" x="79.07" y="0">U</tspan><tspan x="87.35" y="0">B</tspan></text><text class="cls-10" transform="translate(232.62 233.26)">April 2020</text><text class="cls-7" transform="translate(225.13 710.19)">A</text><text class="cls-7" transform="translate(234.94 710.19)">W</text><text class="cls-7" transform="translate(250.18 710.19)">ARDS</text><text class="cls-12" transform="translate(231.11 726.73)">2013</text><text class="cls-12" transform="translate(231.11 738.69)">2014</text><text class="cls-12" transform="translate(267.95 727.18)">Ranked ﬁrst on the whole ﬂoor - Vodafone UK Customer Service Ranking</text><text class="cls-12" transform="translate(231.11 750.64)">2013</text><text class="cls-12" transform="translate(267.95 738.69)">Awarded Most Developed Moderator - ISLC 2016</text><text class="cls-12" transform="translate(267.95 750.64)">Awarded The Diplomat - ISLC 2017</text><text class="cls-26" transform="translate(213 87.82) scale(1 1.05)">Military Status: Completed</text><text class="cls-10" transform="translate(35.43 195.67)">Grade: Very Good</text><text class="cls-12" transform="translate(81.57 398.09)">•</text><text class="cls-12" transform="translate(89.03 398.09)">HTML</text><text class="cls-12" transform="translate(89.06 410)">Node.js</text><text class="cls-12" transform="translate(59.9 436.2)">•</text><text class="cls-12" transform="translate(128.59 410)">REST APIs</text><text class="cls-12" transform="translate(81.79 422.53)">•</text><text class="cls-12" transform="translate(89.05 422.53)">MongoDB</text><text class="cls-12" transform="translate(75.94 449.17)">Real Time OS (RTOS)</text><text class="cls-12" transform="translate(67.28 449.17)">•</text><text class="cls-12" transform="translate(35.56 504.1)">•</text><text class="cls-12" transform="translate(35.92 449.17)">•</text><text class="cls-12" transform="translate(42.79 449.17)">Git</text><text class="cls-12" transform="translate(35.45 537.63)">•</text><text class="cls-12" transform="translate(35.45 552.72)">• English: ﬂuent</text><text class="cls-12" transform="translate(44.7 537.63)">Presentation Skills</text><text class="cls-12" transform="translate(107.59 552.72)">•</text><text class="cls-12" transform="translate(114.42 552.72)">Leadership Skills</text><text class="cls-12" transform="translate(35.89 462.52) scale(1.01 1)">•</text><text class="cls-12" transform="translate(42.79 462.52)">Data Structures (Linked-List, Stack </text><text class="cls-12" transform="translate(42.79 474.48)">and Queue)</text><text class="cls-12" transform="translate(97.83 474.19)">•</text><text class="cls-12" transform="translate(106.77 474.19)">OOP</text><text class="cls-8" transform="translate(35.93 640.12)"><tspan class="cls-15">V</tspan><tspan class="cls-16" x="7.64" y="0">o</tspan><tspan class="cls-17" x="13.58" y="0">d</tspan><tspan class="cls-27" x="19.54" y="0">afone</tspan><tspan class="cls-15" x="45.67" y="0" xml:space="preserve">  U</tspan><tspan x="56.44" y="0">K</tspan></text><text class="cls-10" transform="translate(37.93 655.08)"><tspan class="cls-19">June 20</tspan><tspan class="cls-20" x="35.99" y="0">1</tspan><tspan class="cls-19" x="40.39" y="0">3 - Aug 201</tspan><tspan x="91.54" y="0">3</tspan></text><text class="cls-12" transform="translate(35.35 670.01)">•</text><text class="cls-12" transform="translate(41.71 670.01)">Handled all the ﬁnancial queries </text><text class="cls-12" transform="translate(41.71 681.96)">of the customers</text><text class="cls-12" transform="translate(35.35 698.34)">•</text><text class="cls-12" transform="translate(41.58 698.34)">Explained any questions about bills, </text><text class="cls-12" transform="translate(41.58 710.3)">transactions and services.</text><text class="cls-12" transform="translate(226.56 163.87) scale(1.04 1)">•</text><text class="cls-12" transform="translate(235.52 163.87) scale(1.04 1)">Built a blog website using node.js and express connected to a mongoose database to </text><text class="cls-12" transform="translate(235.52 175.83) scale(1.04 1)">store users and posts.</text><text class="cls-12" transform="translate(226.56 249.61) scale(1.04 1)">•</text><text class="cls-12" transform="translate(235.52 249.61) scale(1.04 1)">Built a front-end Google-Keep-Like notes app using React</text><text class="cls-12" transform="translate(226.56 263.61) scale(1.04 1)">•</text><text class="cls-12" transform="translate(235.52 263.61) scale(1.04 1)">Implemented Functional Components, Hooks, Event Handling and Material-UI.</text><text class="cls-12" transform="translate(226.56 187.97) scale(1.04 1)">•</text><text class="cls-12" transform="translate(235.52 187.97) scale(1.04 1)">Implemented OAuth 2.0 for login using Facebook and Google Sign-in.</text><text class="cls-12" transform="translate(235.52 200.04) scale(1.04 1)">Added Cookies and login sessions.</text><text class="cls-8" transform="translate(227.52 283.89) scale(1.04 1)">PEOPLE AND PLACES WEBAPP</text><text class="cls-18" transform="translate(409.08 283.89)">|</text><text class="cls-18" transform="translate(414.45 283.89)"><tspan class="cls-23">WEB</tspan><tspan x="25.51" y="0">S</tspan><tspan class="cls-23" x="32.19" y="0">I</tspan><tspan class="cls-28" x="35.05" y="0">T</tspan><tspan class="cls-23" x="41.78" y="0">E, G</tspan><tspan class="cls-25" x="61.36" y="0">I</tspan><tspan class="cls-24" x="64.21" y="0">T</tspan><tspan x="70.95" y="0">H</tspan><tspan class="cls-24" x="79.07" y="0">U</tspan><tspan x="87.35" y="0">B</tspan></text><text class="cls-10" transform="translate(232.62 299.34)">May 2020</text><text class="cls-12" transform="translate(226.56 315.08) scale(1.04 1)">•</text><text class="cls-12" transform="translate(235.52 315.08) scale(1.04 1)">Used React.js, React Routing, to build the front-end of this Single Page Application.</text><text class="cls-12" transform="translate(226.56 328.22) scale(1.04 1)">•</text><text class="cls-12" transform="translate(226.56 340.36) scale(1.04 1)">•</text><text class="cls-12" transform="translate(235.52 327.78) scale(1.04 1)">Implemented backend using Node.js &amp; Express.js using (REST APIs) .</text><g class="cls-5"><text class="cls-12" transform="translate(235.52 340.48) scale(1.04 1)">Connected backend to database (MongoDB and Mongoose), to store users and places.</text></g><text class="cls-12" transform="translate(226.56 353.43) scale(1.04 1)">•</text><text class="cls-12" transform="translate(235.52 353.18) scale(1.04 1)">Connected the React frontend to the backend.</text><text class="cls-12" transform="translate(226.56 366.51) scale(1.04 1)">•</text><text class="cls-12" transform="translate(236.52 365.88) scale(1.04 1)">Added File Upload.</text><text class="cls-12" transform="translate(226.56 378.58) scale(1.04 1)">•</text><text class="cls-12" transform="translate(236.52 378.58) scale(1.04 1)">Added Authentication</text><text class="cls-12" transform="translate(226.56 200.04) scale(1.04 1)">•</text><text class="cls-7" transform="translate(233.52 398.77) scale(1.04 1)">EMBEDDED SYSTEMS PROJECTS</text><text class="cls-8" transform="translate(227.52 417.68) scale(1.04 1)">DOOR LOCKER SECURITY SYSTEM</text><text class="cls-18" transform="translate(432.15 417.06)">|</text><text class="cls-18" transform="translate(437.53 417.06)">DRIVER, GITHUB</text><text class="cls-10" transform="translate(235.05 430.96)"><tspan class="cls-19">Jan 202</tspan><tspan x="34.97" y="0">0</tspan></text><text class="cls-8" transform="translate(227.52 473.63) scale(1.04 1)">SPEED CONTROLLED DC MOTOR</text><text class="cls-18" transform="translate(421.08 473.01)">|</text><text class="cls-18" transform="translate(426.45 473.01)"><tspan class="cls-23">DR</tspan><tspan x="15.07" y="0">IV</tspan><tspan class="cls-24" x="25.37" y="0">ER, G</tspan><tspan class="cls-25" x="52.16" y="0">I</tspan><tspan class="cls-24" x="55.01" y="0">T</tspan><tspan x="61.75" y="0">H</tspan><tspan class="cls-24" x="69.87" y="0">U</tspan><tspan x="78.16" y="0">B</tspan></text><text class="cls-10" transform="translate(232.62 487.44)">Dec 2019</text><text class="cls-12" transform="translate(226.56 443.44) scale(1.04 1)">•</text><text class="cls-12" transform="translate(235.52 443.44) scale(1.04 1)">Implemented in two ECUs with the use of the following drivers: Keypad, LCD, </text><text class="cls-12" transform="translate(235.52 455.4) scale(1.04 1)">DC Motor, UART, Timer, I2C and External EEPROM.</text><text class="cls-12" transform="translate(226.56 503.18) scale(1.04 1)">•</text><text class="cls-12" transform="translate(235.52 503.18) scale(1.04 1)">Implemented a DC Motor with the use of AVR’s ADC, Timers, and External Interrupt </text><text class="cls-12" transform="translate(235.52 515.13) scale(1.04 1)">to control the speed and direction of the DC Motor</text><text class="cls-12" transform="translate(226.56 532.18) scale(1.04 1)">•</text><text class="cls-12" transform="translate(237.14 530.79) scale(1.04 1)">Displayed the output of ADC on LCD</text><text class="cls-8" transform="translate(227.52 551.77) scale(1.04 1)">SIMPLE CALCULATOR</text><text class="cls-18" transform="translate(360.61 551.15)">|</text><text class="cls-18" transform="translate(365.98 551.15)"><tspan class="cls-23">DR</tspan><tspan x="15.07" y="0">IV</tspan><tspan class="cls-24" x="25.37" y="0">ER, G</tspan><tspan class="cls-25" x="52.16" y="0">I</tspan><tspan class="cls-24" x="55.01" y="0">T</tspan><tspan x="61.75" y="0">H</tspan><tspan class="cls-24" x="69.87" y="0">U</tspan><tspan x="78.16" y="0">B</tspan></text><text class="cls-10" transform="translate(237.14 566.91)">Dec 2019</text><text class="cls-12" transform="translate(226.67 582.65)">•</text><text class="cls-12" transform="translate(235.52 582.65) scale(1.04 1)">Implemented Keypad and LCD drivers to interface with the user t</text><text class="cls-12" transform="translate(520.41 582.65) scale(1.04 1)">o perform </text><text class="cls-12" transform="translate(235.52 594.6) scale(1.04 1)">simple arithmetic calculations </text><text class="cls-12" transform="translate(225.13 639.53)">•</text><text class="cls-12" transform="translate(233.98 639.53) scale(1.04 1)">Built several games using C# with Unity Game engine including (2D Platformer, </text><text class="cls-12" transform="translate(233.98 651.49) scale(1.04 1)">Laser shooter game, Block Breaker game. </text><text class="cls-12" transform="translate(226.09 665.53)">•</text><text class="cls-12" transform="translate(234.95 665.53) scale(1.04 1)">Gained a practical experience using Object Oriented Programming with C#.. </text><text class="cls-12" transform="translate(226.09 680.87)">•</text><text class="cls-12" transform="translate(234.95 680.87) scale(1.04 1)">Developed coding problem solving skills building games.</text><text class="cls-7" transform="translate(226.56 618.77) scale(1.04 1)">OTHER PROJECTS</text><rect class="cls-1" y="1" width="612" height="792"/></svg>