<svg xmlns="http://www.w3.org/2000/svg" viewBox="0 0 371.85 343.76"><defs><style>.cls-1{fill:#ced0d8;}.cls-2{fill:#fff;}.cls-3,.cls-4{fill:none;stroke-miterlimit:10;stroke-width:18px;}.cls-3{stroke:#fff;}.cls-4{stroke:#fdfdff;}</style></defs><title>AuditAsset 5</title><g id="Layer_2" data-name="Layer 2"><g id="Layer_2-2" data-name="Layer 2"><ellipse class="cls-1" cx="185.93" cy="171.88" rx="185.93" ry="171.88"/><line class="cls-2" x1="109.77" y1="73.34" x2="113.33" y2="73.34"/><path class="cls-2" d="M155,161.88,263.37,97.34,190.81,199.58S170.87,187.64,155,161.88Z"/><circle class="cls-2" cx="172.34" cy="180.97" r="25.74"/><path class="cls-3" d="M135.67,249.94c-29-15.85-48.54-45.08-48.54-78.52,0-50.32,44.13-91.11,98.56-91.11a103.79,103.79,0,0,1,55.83,16"/><path class="cls-4" d="M262.82,117.87c15,16,24,36.82,24,59.62,0,31.26-17,58.84-43,75.25"/><circle class="cls-2" cx="134.5" cy="249.31" r="7.86"/><circle class="cls-2" cx="243.88" cy="252.74" r="7.86"/></g></g></svg>