<svg xmlns="http://www.w3.org/2000/svg" viewBox="0 0 371.85 343.76"><defs><style>.cls-1{fill:#ced0d8;}.cls-2{fill:#fdfdfd;}</style></defs><title>AuditAsset 2</title><g id="Layer_2" data-name="Layer 2"><g id="Layer_1-2" data-name="Layer 1"><ellipse class="cls-1" cx="185.93" cy="171.88" rx="185.93" ry="171.88"/></g><g id="Layer_2-2" data-name="Layer 2"><path class="cls-2" d="M216.46,257.93H201.18a52.28,52.28,0,0,1,4-22.17c3.86-8.79,8.32-17.35,13-25.74,5.5-9.86,11.61-19.39,14.44-30.49,5.43-21.24-2.11-42-19.88-52.14-19.23-11-39-10.85-57.79,1-16.61,10.44-21.67,26.73-19.44,45.6,1.22,10.39,6,19.49,11.06,28.48,5.31,9.47,11.1,18.76,15.47,28.67,3,6.89,4.09,14.68,5.89,22.1a21.37,21.37,0,0,1,.05,4.68H152.72c-.45-16.79-9.54-30-17.5-43.65-1.67-2.87-3.33-5.74-4.89-8.66-5-9.28-9-18.88-10.37-29.43-4.44-34,13.53-62.76,49-70.34,17.16-3.68,33.9-1.84,49.5,6.56,20.56,11.08,30.4,28.8,31.34,51.86.61,14.9-3.92,28.39-10.92,41.23-3.18,5.82-6.59,11.51-9.93,17.23C222.55,233.55,216.65,244.58,216.46,257.93Z"/><path class="cls-2" d="M184.62,296.75c-6.83,0-13.67,0-20.5,0-4.27,0-6.89-2.27-6.9-5.86s2.62-5.84,6.91-5.85q20.34,0,40.68,0c4.48,0,6.9,2,6.95,5.71.06,3.92-2.32,6-7,6C198.07,296.76,191.34,296.75,184.62,296.75Z"/><path class="cls-2" d="M184.37,277.56c-7.25,0-14.49,0-21.74,0-4.1,0-6.5-2.27-6.41-5.89s2.43-5.51,6.45-5.51h43.79c3.91,0,6.36,2.15,6.44,5.55s-2.41,5.83-6.48,5.85C199.07,277.58,191.72,277.56,184.37,277.56Z"/><path class="cls-2" d="M71,156.83h31.61v15.36H71Z"/><path class="cls-2" d="M298.31,156.92V172.2H266.66V156.92Z"/><path class="cls-2" d="M86.25,226.34,79.76,212,108,199.24l6.47,14.4Z"/><path class="cls-2" d="M117.09,118.65l-9.18,12.84-25.14-18L92,100.66Z"/><path class="cls-2" d="M277.19,100.65l9.21,12.84-25.11,18-9.22-12.83Z"/><path class="cls-2" d="M255,215c2-5,3.9-9.63,5.92-14.62l28.24,11.43c-2,5-3.93,9.69-5.93,14.64Z"/><path class="cls-2" d="M150.4,93.07l-13.89,7.49c-4.61-8.58-9.14-17-13.84-25.74l13.91-7.49Z"/><path class="cls-2" d="M232.67,100.57l-13.89-7.5c4.63-8.65,9.12-17,13.8-25.73l13.92,7.45C241.88,83.4,237.36,91.84,232.67,100.57Z"/><path class="cls-2" d="M192.74,88H177.38V60.19h15.36Z"/><path class="cls-2" d="M205.83,304.18c-4.32,3.78-8,7.25-12,10.37a8.81,8.81,0,0,1-5.13,1.72c-13.72-.07-10.34,1.77-20.6-7.62-1.44-1.32-2.79-2.73-4.55-4.47Z"/></g></g></svg>